<?xml version="1.0" encoding="UTF-8" standalone="no"?>
<svg
   version="1.2"
   width="522.63776"
   height="408.38077"
   viewBox="0 0 14749.999 11525.413"
   preserveAspectRatio="xMidYMid"
   clip-path="url(#presentation_clip_path)"
   xml:space="preserve"
   id="svg2"
   style="fill-rule:evenodd;stroke-width:28.222;stroke-linejoin:round"
   xmlns="http://www.w3.org/2000/svg"
   xmlns:svg="http://www.w3.org/2000/svg"
   xmlns:rdf="http://www.w3.org/1999/02/22-rdf-syntax-ns#"
   xmlns:cc="http://creativecommons.org/ns#"
   xmlns:dc="http://purl.org/dc/elements/1.1/"
   xmlns:ooo="http://xml.openoffice.org/svg/export"><metadata
   id="metadata321"><rdf:RDF><cc:Work
       rdf:about=""><dc:format>image/svg+xml</dc:format><dc:type
         rdf:resource="http://purl.org/dc/dcmitype/StillImage" /></cc:Work></rdf:RDF></metadata>
 <defs
   class="ClipPathGroup"
   id="defs4">
  <clipPath
   id="presentation_clip_path"
   clipPathUnits="userSpaceOnUse">
   <rect
   x="0"
   y="0"
   width="21590"
   height="27940"
   id="rect7" />
  </clipPath>
 
    
   
     
     
     
     
     
     
     
     
     
     
     
     
     
     
     
     
     
     
     
    
      
     
      
     
      
     
      
     
      
      
     
      
      
     
      
      
     
      
     
      
      
     
      
     
      
     
      
     
      
     
      
      
     
      
      
     
      
      
     
      
      
     
      
      
     
      
      
     
       
       
      
       
       
      
       
      
       
      
       
       
      
       
       
      
       
       
      
       
      
       
      
       
      
       
      
       
      
       
      
       
       
      
       
       
      
       
      
       
      
       
      
       
      
       
      
       
      
       
      
       
       
      
       
       
      
       
      
       
      
       
      
       
      
       
      
        
       
        
       
        
       
        
        

       
        
        

       
        
       
        
       
        
       
        
        

       
        
        

       
        
        

       
        
        

       
        
        

       
        
        

       
        
       
        
        

       
        
       
        
       
        
        

       
        
       </defs>
 <defs
   class="TextShapeIndex"
   id="defs9">
  <g
   ooo:slide="id1"
   ooo:id-list="id3 id4 id5 id6 id7 id8 id9 id10 id11 id12 id13 id14 id15 id16 id17 id18 id19 id20 id21 id22 id23 id24 id25 id26 id27 id28 id29 id30 id31"
   id="g11" />
 </defs>
 <defs
   class="EmbeddedBulletChars"
   id="defs13">
  <g
   id="bullet-char-template(57356)"
   transform="matrix(4.8828125e-4,0,0,-4.8828125e-4,0,0)">
   <path
   d="M 580,1141 1163,571 580,0 -4,571 Z"
   id="path16" />
  </g>
  <g
   id="bullet-char-template(57354)"
   transform="matrix(4.8828125e-4,0,0,-4.8828125e-4,0,0)">
   <path
   d="M 8,1128 H 1137 V 0 H 8 Z"
   id="path19" />
  </g>
  <g
   id="bullet-char-template(10146)"
   transform="matrix(4.8828125e-4,0,0,-4.8828125e-4,0,0)">
   <path
   d="M 174,0 602,739 174,1481 1456,739 Z M 1358,739 309,1346 659,739 Z"
   id="path22" />
  </g>
  <g
   id="bullet-char-template(10132)"
   transform="matrix(4.8828125e-4,0,0,-4.8828125e-4,0,0)">
   <path
   d="M 2015,739 1276,0 H 717 l 543,543 H 174 v 393 h 1086 l -543,545 h 557 z"
   id="path25" />
  </g>
  <g
   id="bullet-char-template(10007)"
   transform="matrix(4.8828125e-4,0,0,-4.8828125e-4,0,0)">
   <path
   d="m 0,-2 c -7,16 -16,29 -25,39 l 381,530 c -94,256 -141,385 -141,387 0,25 13,38 40,38 9,0 21,-2 34,-5 21,4 42,12 65,25 l 27,-13 111,-251 280,301 64,-25 24,25 c 21,-10 41,-24 62,-43 C 886,937 835,863 770,784 769,783 710,716 594,584 L 774,223 c 0,-27 -21,-55 -63,-84 l 16,-20 C 717,90 699,76 672,76 641,76 570,178 457,381 L 164,-76 c -22,-34 -53,-51 -92,-51 -42,0 -63,17 -64,51 -7,9 -10,24 -10,44 0,9 1,19 2,30 z"
   id="path28" />
  </g>
  <g
   id="bullet-char-template(10004)"
   transform="matrix(4.8828125e-4,0,0,-4.8828125e-4,0,0)">
   <path
   d="M 285,-33 C 182,-33 111,30 74,156 52,228 41,333 41,471 c 0,78 14,145 41,201 34,71 87,106 158,106 53,0 88,-31 106,-94 l 23,-176 c 8,-64 28,-97 59,-98 l 735,706 c 11,11 33,17 66,17 42,0 63,-15 63,-46 V 965 c 0,-36 -10,-64 -30,-84 L 442,47 C 390,-6 338,-33 285,-33 Z"
   id="path31" />
  </g>
  <g
   id="bullet-char-template(9679)"
   transform="matrix(4.8828125e-4,0,0,-4.8828125e-4,0,0)">
   <path
   d="M 813,0 C 632,0 489,54 383,161 276,268 223,411 223,592 c 0,181 53,324 160,431 106,107 249,161 430,161 179,0 323,-54 432,-161 108,-107 162,-251 162,-431 0,-180 -54,-324 -162,-431 C 1136,54 992,0 813,0 Z"
   id="path34" />
  </g>
  <g
   id="bullet-char-template(8226)"
   transform="matrix(4.8828125e-4,0,0,-4.8828125e-4,0,0)">
   <path
   d="m 346,457 c -73,0 -137,26 -191,78 -54,51 -81,114 -81,188 0,73 27,136 81,188 54,52 118,78 191,78 73,0 134,-26 185,-79 51,-51 77,-114 77,-187 0,-75 -25,-137 -76,-188 -50,-52 -112,-78 -186,-78 z"
   id="path37" />
  </g>
  <g
   id="bullet-char-template(8211)"
   transform="matrix(4.8828125e-4,0,0,-4.8828125e-4,0,0)">
   <path
   d="M -4,459 H 1135 V 606 H -4 Z"
   id="path40" />
  </g>
 </defs>
 <defs
   class="TextEmbeddedBitmaps"
   id="defs42" />
 <g
   id="g44"
   transform="translate(-1175,900.41316)">
  <g
   id="id2"
   class="Master_Slide">
   <g
   id="bg-id2"
   class="Background" />
   <g
   id="bo-id2"
   class="BackgroundObjects" />
  </g>
 </g>
 <g
   class="SlideGroup"
   id="g49"
   transform="translate(-1175,900.41316)">
  <g
   id="g51">
   
   
  
  <path
   d="M 8550,2600 H 7400 V 1500 h 2300 v 1100 z"
   id="path61"
   style="fill:none;stroke:#000000;stroke-width:50" /><text
   class="TextShape"
   id="text63"
   style="line-height:0%"
   x="-72.951172"><tspan
     class="TextParagraph"
     font-size="388px"
     font-weight="400"
     id="tspan65"
     style="font-weight:400;font-size:388px;font-family:'\'Arial', 'sans-serif\''"><tspan
       class="TextPosition"
       x="8003.0488"
       y="2185"
       id="tspan67"><tspan
         id="tspan69"
         style="fill:#000000;stroke:none">Robin</tspan></tspan></tspan></text><path
   d="M 7400,1500 H 8401 L 8150,1300 H 7650 Z"
   id="path74"
   style="fill:none;stroke:#000000;stroke-width:50" /><path
   d="M 5050,5000 H 3900 V 3900 h 2300 v 1100 z"
   id="path81"
   style="fill:none;stroke:#000000;stroke-width:50" /><text
   class="TextShape"
   id="text83"
   style="line-height:0%"
   x="-685.5957"><tspan
     class="TextParagraph"
     font-size="388px"
     font-weight="400"
     id="tspan85"
     style="font-weight:400;font-size:388px;font-family:'\'Arial', 'sans-serif\''"><tspan
       class="TextPosition"
       x="3943.4043"
       y="4585"
       id="tspan87"><tspan
         id="tspan89"
         style="fill:#000000;stroke:none">Documents</tspan></tspan></tspan></text><path
   d="M 3900,3900 H 4901 L 4650,3700 H 4150 Z"
   id="path94"
   style="fill:none;stroke:#000000;stroke-width:50" /><path
   d="M 5050,7800 H 3900 V 6700 h 2300 v 1100 z"
   id="path101"
   style="fill:none;stroke:#000000;stroke-width:50" /><text
   class="TextShape"
   id="text103"
   style="line-height:0%"
   x="-78.197266"><tspan
     class="TextParagraph"
     font-size="388px"
     font-weight="400"
     id="tspan105"
     style="font-weight:400;font-size:388px;font-family:'\'Arial', 'sans-serif\''"><tspan
       class="TextPosition"
       x="4345.8027"
       y="7385"
       id="tspan107"><tspan
         id="tspan109"
         style="fill:#000000;stroke:none">backup</tspan></tspan></tspan></text><path
   d="M 3900,6700 H 4901 L 4650,6500 H 4150 Z"
   id="path114"
   style="fill:none;stroke:#000000;stroke-width:50" /><path
   d="M 2350,10600 H 1200 V 9500 h 2300 v 1100 z"
   id="path121"
   style="fill:none;stroke:#000000;stroke-width:50" /><text
   class="TextShape"
   id="text123"
   style="font-size:11.154px;line-height:0%;stroke-width:28.222"
   transform="scale(0.92950297,1.0758438)"
   x="191.03177"><tspan
     class="TextParagraph"
     font-size="388px"
     font-weight="400"
     id="tspan125"
     style="font-weight:400;font-size:360.647px;font-family:'\'Arial', 'sans-serif\'';stroke-width:28.222"><tspan
       class="TextPosition"
       x="1452.3673"
       y="9466.9873"
       id="tspan127"
       style="stroke-width:28.222"><tspan
         id="tspan129"
         style="fill:#000000;stroke:none;stroke-width:28.222">2012-12-01</tspan></tspan></tspan></text><path
   d="M 1200,9500 H 2201 L 1950,9300 H 1450 Z"
   id="path134"
   style="fill:none;stroke:#000000;stroke-width:50" /><path
   d="M 5050,10600 H 3900 V 9500 h 2300 v 1100 z"
   id="path141"
   style="fill:none;stroke:#000000;stroke-width:50" /><text
   class="TextShape"
   id="text143"
   style="font-size:11.1093px;line-height:0%;stroke-width:28.222"
   transform="scale(0.92577479,1.0801763)"
   x="619.05145"><tspan
     class="TextParagraph"
     font-size="388px"
     font-weight="400"
     id="tspan145"
     style="font-weight:400;font-size:359.201px;font-family:'\'Arial', 'sans-serif\'';stroke-width:28.222"><tspan
       class="TextPosition"
       x="4374.9199"
       y="9429.0166"
       id="tspan147"
       style="stroke-width:28.222"><tspan
         id="tspan149"
         style="fill:#000000;stroke:none;stroke-width:28.222">2013-01-08</tspan></tspan></tspan></text><path
   d="M 3900,9500 H 4901 L 4650,9300 H 4150 Z"
   id="path154"
   style="fill:none;stroke:#000000;stroke-width:50" /><path
   d="M 7750,10600 H 6600 V 9500 h 2300 v 1100 z"
   id="path161"
   style="fill:none;stroke:#000000;stroke-width:50" /><text
   class="TextShape"
   id="text163"
   style="font-size:11.1125px;line-height:0%;stroke-width:28.222"
   transform="scale(0.9260451,1.079861)"
   x="1031.9673"><tspan
     class="TextParagraph"
     font-size="388px"
     font-weight="400"
     id="tspan165"
     style="font-weight:400;font-size:359.305px;font-family:'\'Arial', 'sans-serif\'';stroke-width:28.222"><tspan
       class="TextPosition"
       x="7289.2534"
       y="9431.7695"
       id="tspan167"
       style="stroke-width:28.222"><tspan
         id="tspan169"
         style="fill:#000000;stroke:none;stroke-width:28.222">2013-01-27</tspan></tspan></tspan></text><path
   d="M 6600,9500 H 7601 L 7350,9300 H 6850 Z"
   id="path174"
   style="fill:none;stroke:#000000;stroke-width:50" /><path
   d="M 12050,5100 H 10900 V 4000 h 2300 v 1100 z"
   id="path181"
   style="fill:none;stroke:#000000;stroke-width:50" /><text
   class="TextShape"
   id="text183"
   style="line-height:0%"
   x="-78.197266"><tspan
     class="TextParagraph"
     font-size="388px"
     font-weight="400"
     id="tspan185"
     style="font-weight:400;font-size:388px;font-family:'\'Arial', 'sans-serif\''"><tspan
       class="TextPosition"
       x="11345.803"
       y="4685"
       id="tspan187"><tspan
         id="tspan189"
         style="fill:#000000;stroke:none">backup</tspan></tspan></tspan></text><path
   d="m 10900,4000 h 1001 l -251,-200 h -500 z"
   id="path194"
   style="fill:none;stroke:#000000;stroke-width:50" /><path
   d="M 9350,7800 H 8200 V 6700 h 2300 v 1100 z"
   id="path201"
   style="fill:none;stroke:#000000;stroke-width:50" /><text
   class="TextShape"
   id="text203"
   style="line-height:0%"
   x="-86.722656"><tspan
     class="TextParagraph"
     font-size="388px"
     font-weight="400"
     id="tspan205"
     style="font-weight:400;font-size:388px;font-family:'\'Arial', 'sans-serif\''"><tspan
       class="TextPosition"
       x="8637.2773"
       y="7385"
       id="tspan207"><tspan
         id="tspan209"
         style="fill:#000000;stroke:none">original</tspan></tspan></tspan></text><path
   d="M 8200,6700 H 9201 L 8950,6500 H 8450 Z"
   id="path214"
   style="fill:none;stroke:#000000;stroke-width:50" /><path
   d="M 12050,7800 H 10900 V 6700 h 2300 v 1100 z"
   id="path221"
   style="fill:none;stroke:#000000;stroke-width:50" /><text
   class="TextShape"
   id="text223"
   style="line-height:0%"
   x="-113.32324"><tspan
     class="TextParagraph"
     font-size="388px"
     font-weight="400"
     id="tspan225"
     style="font-weight:400;font-size:388px;font-family:'\'Arial', 'sans-serif\''"><tspan
       class="TextPosition"
       x="11051.677"
       y="7385"
       id="tspan227"><tspan
         id="tspan229"
         style="fill:#000000;stroke:none">pnas_final</tspan></tspan></tspan></text><path
   d="m 10900,6700 h 1001 l -251,-200 h -500 z"
   id="path234"
   style="fill:none;stroke:#000000;stroke-width:50" /><path
   d="M 14750,7800 H 13600 V 6700 h 2300 v 1100 z"
   id="path241"
   style="fill:none;stroke:#000000;stroke-width:50" /><text
   class="TextShape"
   id="text243"
   style="line-height:0%"
   x="-96.561523"><tspan
     class="TextParagraph"
     font-size="388px"
     font-weight="400"
     id="tspan245"
     style="font-weight:400;font-size:388px;font-family:'\'Arial', 'sans-serif\''"><tspan
       class="TextPosition"
       x="13813.438"
       y="7385"
       id="tspan247"><tspan
         id="tspan249"
         style="fill:#000000;stroke:none">pnas_sub</tspan></tspan></tspan></text><path
   d="m 13600,6700 h 1001 l -251,-200 h -500 z"
   id="path254"
   style="fill:none;stroke:#000000;stroke-width:50" /><path
   d="M 8300,2700 6491,3522"
   id="path259"
   style="fill:none;stroke:#000000" /><path
   d="m 6100,3700 472,-50 -124,-273 z"
   id="path261"
   style="fill:#000000;stroke:none" /><path
   d="m 8900,2700 1809,822"
   id="path266"
   style="fill:none;stroke:#000000" /><path
   d="m 11100,3700 -348,-323 -124,273 z"
   id="path268"
   style="fill:#000000;stroke:none" /><path
   d="M 4700,8000 2891,8822"
   id="path273"
   style="fill:none;stroke:#000000" /><path
   d="m 2500,9000 472,-50 -124,-273 z"
   id="path275"
   style="fill:#000000;stroke:none" /><path
   d="m 5300,8000 1809,822"
   id="path280"
   style="fill:none;stroke:#000000" /><path
   d="m 7500,9000 -348,-323 -124,273 z"
   id="path282"
   style="fill:#000000;stroke:none" /><path
   d="m 5000,8000 v 770"
   id="path287"
   style="fill:none;stroke:#000000" /><path
   d="m 5000,9200 150,-450 h -300 z"
   id="path289"
   style="fill:#000000;stroke:none" /><path
   d="M 11800,5300 9991,6122"
   id="path294"
   style="fill:none;stroke:#000000" /><path
   d="m 9600,6300 472,-50 -124,-273 z"
   id="path296"
   style="fill:#000000;stroke:none" /><path
   d="m 12400,5300 1809,822"
   id="path301"
   style="fill:none;stroke:#000000" /><path
   d="m 14600,6300 -348,-323 -124,273 z"
   id="path303"
   style="fill:#000000;stroke:none" /><path
   d="m 12100,5300 v 770"
   id="path308"
   style="fill:none;stroke:#000000" /><path
   d="m 12100,6500 150,-450 h -300 z"
   id="path310"
   style="fill:#000000;stroke:none" /><path
   d="m 5000,5200 v 770"
   id="path315"
   style="fill:none;stroke:#000000" /><path
   d="m 5000,6400 150,-450 h -300 z"
   id="path317"
   style="fill:#000000;stroke:none" /><path
   d="m 8535.2014,424.5868 h -1150 V -675.41316 h 2300 V 424.5868 Z"
   id="path1159"
   style="fill:none;stroke:#000000;stroke-width:50" /><text
   class="TextShape"
   id="text1167"
   style="line-height:0%"
   x="-92.200676"
   y="-2175.4131"><tspan
     class="TextParagraph"
     font-size="388px"
     font-weight="400"
     id="tspan1165"
     style="font-weight:400;font-size:388px;font-family:'\'Arial', 'sans-serif\''"><tspan
       class="TextPosition"
       x="7983.7979"
       y="9.5869436"
       id="tspan1163"><tspan
         id="tspan1161"
         style="fill:#000000;stroke:none">Users</tspan></tspan></tspan></text><path
   d="m 7385.2014,-675.41316 h 1001 l -251,-200 h -500 z"
   id="path1169"
   style="fill:none;stroke:#000000;stroke-width:50" /><path
   d="M 8596.0911,582.79657 V 938.43216"
   id="path1461"
   style="fill:none;stroke:#000000;stroke-width:28.222" /><path
   d="m 8596.0911,1368.4322 150,-450.00004 h -300 z"
   id="path1463"
   style="fill:#000000;stroke:none" /></g>
 </g>
</svg>
